PathFileType	4	(X/Y/Z)	/tmp/tmphz8i29mk/org-f5e79b5e/32898/baseball-pitching/20220928/session_662820_hawkeye/trc/001_10A17836-7AA3-4221-8461-2F40718F5DA8.trc
DataRate	CameraRate	NumFrames	NumMarkers	Units	OrigDataRate	OrigDataStartFrame	OrigNumFrames
303.03030303030306	303.03030303030306	8	13	mm	303.03030303030306	341	908
Frame#	Time	LSJC			RSJC			LEJC			REJC			LWJC			RWJC			LHJC			RHJC			LKJC			RKJC			LAJC			RAJC			NECK		
		X1	Y1	Z1	X2	Y2	Z2	X3	Y3	Z3	X4	Y4	Z4	X5	Y5	Z5	X6	Y6	Z6	X7	Y7	Z7	X8	Y8	Z8	X9	Y9	Z9	X10	Y10	Z10	X11	Y11	Z11	X12	Y12	Z12	X13	Y13	Z13

341	1.1219999999999999	-52.15518127015083	243.2466529275169	1846.6292647320383	-223.86358465017457	-129.34546943878902	1866.3026737835914	50.886994887253124	190.42649140565666	1572.07718298605	-71.2712439225531	-279.8888983323769	1669.7969931123303	111.68663777926498	37.72405173045905	1774.958521091787	67.48820660997758	-107.76414342148291	1813.095059486301	-23.4235403397313	153.32609431303678	1347.0916736864717	-193.29037073122126	-6.28457469203424	1303.749290494799	257.1560942140385	-31.06884489690894	1522.9803607451863	-129.69643338518523	-71.02453630900051	870.2156409959123	501.21526958683023	-276.66930829832637	1266.8526571318903	-174.10040323709566	-74.8861956222525	420.605636097058	-107.86648297276616	42.449253895647104	1866.167340179075
342	1.1253	-51.94785118606383	243.79333200521302	1847.048735289312	-223.4919144716541	-128.8108535272993	1865.9529095778018	52.13156996073311	192.0700717215272	1572.693144231311	-70.76451274292566	-279.13054817807534	1669.2813116228224	111.9325548997404	38.71409512265652	1775.7022099563176	68.40287713720156	-107.41980897729108	1813.158803678263	-21.90373878595959	153.8762622789281	1347.1156944555664	-191.83810805106535	-5.651979807820821	1303.7346016501178	255.40791476871217	-29.85331596105942	1527.4794121964892	-128.83421870638927	-70.61755994944559	870.1928311060799	499.4125670480649	-276.5214917725369	1272.6846596257567	-173.96296306363038	-74.57242632144421	420.7377659130497	-107.59321157214252	43.00706810889387	1866.2314908675903
343	1.1286	-51.72167465491504	244.39117873848826	1847.5016993986255	-223.0651957554972	-128.24239110022936	1865.6407158123948	53.42825933606454	193.81956714333225	1573.3604948569234	-70.24465943728423	-278.35819937924623	1668.7822630226167	112.26500833400603	39.78495029667302	1776.4680557373047	69.29143337614046	-107.04733776500342	1813.2436537830038	-20.368880891289642	154.44341933668187	1347.1759160160777	-190.35798282161235	-5.018014561307038	1303.7636326086672	253.6383861969868	-28.60937809413235	1531.9289632898913	-127.97146955160667	-70.17704561745394	870.2057510556466	497.3330034943764	-276.2314099747187	1278.1416979080195	-173.79539551054447	-74.2834833527049	420.8921174077734	-107.27575463645468	43.611789686249416	1866.3340512189961
344	1.1319	-51.4679769172851	245.04449519175736	1847.9726439943106	-222.59072722686724	-127.627826690266	1865.364434431344	54.75377219653366	195.67384984995726	1574.0529027344362	-69.71790630316194	-277.55745767340744	1668.2985902728908	112.70263277410986	40.9527657587854	1777.231435274212	70.13746039389727	-106.62282930588034	1813.3474762089802	-18.827815652471966	155.03154439825695	1347.2645745653647	-188.85921733901287	-4.378378227333741	1303.828762380732	251.85236374919674	-27.326429763303206	1536.314835159356	-127.10664017367836	-69.70521692301416	870.2495779928756	494.97836546817683	-275.7863850271341	1283.1998767655266	-173.5950009094883	-74.01932140421965	421.06405968631225	-106.91240206568165	44.269916296491886	1866.467128162663
345	1.1352	-51.18154202233644	245.75573121196172	1848.4437840204985	-222.07852092335946	-126.95699927154672	1865.1187211271092	56.0810761303078	197.63042709333325	1574.7409151246493	-69.19150874554335	-276.71595628429066	1667.8266008309822	113.26152223468749	42.23198701042722	1777.9647063929112	70.92223308875333	-106.12398363057073	1813.4664154290726	-17.290573543642125	155.64344880179047	1347.3712251377463	-187.3514377275975	-3.7306489351633063	1303.9192888869609	250.055569968251	-25.99247129424267	1540.620710700065	-126.2380279084175	-69.20514054398181	870.3162438815343	492.35148884409244	-275.16966926090277	1287.833190451143	-173.3591392340639	-73.77939072433655	421.24631748505504	-106.50437167414832	44.985953534678096	1866.6200787321777
346	1.1385	-50.86071423227616	246.5253287862399	1848.894929130981	-221.54145838006485	-126.22194061582881	1864.894394216404	57.37918752448963	199.6852062590144	1575.3917573765762	-68.67375885194646	-275.82342276268037	1667.3601120455496	113.9549398177172	43.635260399458666	1778.6369403030296	71.62475825989736	-105.53021347820822	1813.5948420639425	-15.76841774057514	156.2807288658429	1347.4826282137558	-185.84475881494325	-3.0742907414252834	1304.0212938675963	248.25462714462645	-24.59425812263705	1544.8282312689244	-125.36376219832417	-68.68082690158093	870.3943124694246	489.45679620523975	-274.3610795154423	1292.0145688993912	-173.08530786497894	-73.56260861031198	421.4288842449457	-106.05594662323891	45.76227706946512	1866.7793536919728
347	1.1418	-50.507473988506206	247.35168694248418	1849.3035271488068	-220.9952508948949	-125.4169205755413	1864.678418140576	58.613193110505335	201.83254361212025	1575.969447884625	-68.17392273769148	-274.8717518892892	1666.8904561534937	114.79315572594433	45.173506693468575	1779.213789455503	72.22183279911984	-104.82277767485084	1813.725352407603	-14.273808839440163	156.94375309195806	1347.5827835646849	-184.34975279797115	-2.4106615136502016	1304.1176765864764	246.45699931772145	-23.117428575293278	1548.9170449535354	-124.48180148938881	-68.13722704574278	870.4689978874343	486.3000893202634	-273.3373789369991	1295.7160974403087	-172.77115467416297	-73.3673954070939	421.5990352017369	-105.57448651544664	46.5991019249725	1866.92849700654
348	1.1451	-50.12745569884421	248.2312136074412	1849.6446285331724	-220.45839549946197	-124.53836221437457	1864.453903417585	59.74410692951768	204.06541951596597	1576.4348130236945	-67.70221795731806	-273.85495806241556	1666.4064752023962	115.78349831087841	46.8562437493588	1779.657127352506	72.6879137320526	-103.98470468129405	1813.8487405442932	-12.820423839669003	157.63169461906548	1347.6529363593982	-182.8774497528891	-1.742999773197223	1304.1881685509697	244.6709362030252	-21.546485706788516	1552.8646583569396	-123.58991632198546	-67.58020187546255	870.5221774780406	482.88794388749625	-272.07235297203306	1298.9085178721941	-172.4144292199717	-73.19173695997685	421.7413202445327	-105.0703849299994	47.49455375062973	1867.0481222157025
